<svg width="180" height="64" viewBox="0 0 180 64" fill="none" xmlns="http://www.w3.org/2000/svg">
<g clip-path="url(#clip0_7865_485)">
<path d="M-0.0898438 -1.5459C9.35622 19.7507 20.0632 54.0944 83.4377 48.5985C90.422 47.7397 103.704 45.6788 110.402 43.9613C116.557 42.383 152.202 33.5982 176.4 64.9015" stroke="#474442" stroke-width="0.686987"/>
<path d="M37.8111 38.6392H37.9313V38.8796H34.541V38.6392H34.6612C34.7734 38.6392 34.8776 38.5911 34.9738 38.4949C35.07 38.3987 35.1501 38.2865 35.2143 38.1583C35.2944 38.03 35.3505 37.8938 35.3826 37.7495C35.4146 37.5892 35.4307 37.4449 35.4307 37.3167V24.501C35.4307 24.3888 35.4146 24.2605 35.3826 24.1163C35.3505 23.972 35.2944 23.8357 35.2143 23.7075C35.1501 23.5793 35.07 23.4751 34.9738 23.3949C34.8776 23.2987 34.7734 23.2507 34.6612 23.2507H34.541V23.0102H38.7248C40.3277 23.0102 41.562 23.3228 42.4276 23.948C43.3093 24.5731 43.7501 25.4948 43.7501 26.7131C43.7501 27.3222 43.6459 27.8592 43.4375 28.3241C43.2451 28.7729 42.9806 29.1656 42.644 29.5022C42.3074 29.8228 41.9067 30.0873 41.4418 30.2957C40.993 30.4881 40.5121 30.6323 39.9991 30.7285L41.7303 33.3734C42.1471 34.0146 42.5719 34.6478 43.0047 35.2729C43.4375 35.8821 43.8623 36.5152 44.279 37.1724C44.3913 37.3327 44.5115 37.5011 44.6397 37.6774C44.784 37.8537 44.9283 38.014 45.0725 38.1583C45.2328 38.3025 45.3931 38.4228 45.5534 38.5189C45.7297 38.5991 45.9061 38.6392 46.0824 38.6392V38.8796H45.0485C44.4073 38.8796 43.8783 38.7273 43.4615 38.4228C43.0608 38.1022 42.7242 37.7335 42.4517 37.3167C41.7303 36.2587 41.009 35.1848 40.2877 34.0947C39.5824 33.0047 38.877 31.9307 38.1717 30.8728C37.9954 30.8567 37.8031 30.8407 37.5947 30.8247C37.4023 30.7926 37.218 30.7606 37.0416 30.7285V37.3167C37.0416 37.4449 37.0577 37.5892 37.0897 37.7495C37.1218 37.8938 37.1699 38.03 37.234 38.1583C37.3142 38.2865 37.3943 38.3987 37.4744 38.4949C37.5706 38.5911 37.6828 38.6392 37.8111 38.6392ZM37.0416 23.8277V29.935H37.1619C37.2901 29.9511 37.4905 29.9671 37.763 29.9831C38.0515 29.9831 38.4042 29.9831 38.8209 29.9831C39.1576 29.9831 39.5102 29.935 39.8789 29.8389C40.2636 29.7267 40.6163 29.5503 40.9369 29.3099C41.2735 29.0534 41.546 28.7248 41.7544 28.3241C41.9788 27.9233 42.091 27.4184 42.091 26.8092C42.091 26.2001 41.9708 25.7032 41.7303 25.3185C41.5059 24.9338 41.1853 24.6292 40.7685 24.4048C40.3678 24.1804 39.8789 24.0281 39.3018 23.948C38.7248 23.8678 38.0916 23.8277 37.4023 23.8277H37.0416Z" fill="#474442"/>
<path d="M47.2134 38.6392H47.3336C47.4619 38.6392 47.5741 38.5991 47.6703 38.5189C47.7664 38.4228 47.8466 38.3106 47.9107 38.1823C47.9909 38.0541 48.047 37.9178 48.079 37.7736C48.1271 37.6293 48.1512 37.493 48.1512 37.3648V24.501C48.1512 24.3888 48.1271 24.2605 48.079 24.1163C48.047 23.972 47.9909 23.8357 47.9107 23.7075C47.8466 23.5793 47.7664 23.4751 47.6703 23.3949C47.5741 23.2987 47.4619 23.2507 47.3336 23.2507H47.2134V23.0102H56.4706V25.2464H56.2301C56.1981 24.8777 56.0538 24.5571 55.7973 24.2846C55.5408 23.996 55.1401 23.8518 54.5951 23.8518H49.7621V29.935H53.7535C54.1222 29.935 54.4268 29.8228 54.6672 29.5984C54.9237 29.374 55.0519 29.1095 55.0519 28.8049H55.2924V31.8105H55.0519C55.0519 31.522 54.9317 31.2735 54.6913 31.0651C54.4508 30.8567 54.1382 30.7526 53.7535 30.7526H49.7621V38.038H55.0279C55.3325 38.038 55.5969 37.9659 55.8214 37.8216C56.0458 37.6774 56.2301 37.5091 56.3744 37.3167C56.5347 37.1083 56.6469 36.8919 56.711 36.6675C56.7912 36.4271 56.8312 36.2267 56.8312 36.0664H57.0717V38.8796H47.2134V38.6392Z" fill="#474442"/>
<path d="M68.3089 34.6237C68.3089 35.4252 68.1486 36.1145 67.828 36.6916C67.5074 37.2526 67.0907 37.7094 66.5777 38.0621C66.0808 38.4147 65.5117 38.6712 64.8706 38.8315C64.2454 38.9918 63.6202 39.072 62.9951 39.072C62.3539 39.072 61.8009 39.0078 61.336 38.8796C60.8712 38.7514 60.4464 38.6311 60.0617 38.5189C59.8052 38.4388 59.5727 38.3747 59.3644 38.3266C59.156 38.2625 58.9476 38.2304 58.7392 38.2304V35.4893H58.9796C58.9796 36.0985 59.1319 36.5874 59.4365 36.956C59.7571 37.3087 60.1258 37.5812 60.5425 37.7736C60.9593 37.9659 61.3761 38.0942 61.7929 38.1583C62.2096 38.2064 62.5142 38.2304 62.7066 38.2304C63.3958 38.2304 63.9889 38.1342 64.4858 37.9419C64.9828 37.7335 65.3915 37.469 65.7121 37.1484C66.0327 36.8118 66.2651 36.4431 66.4094 36.0423C66.5697 35.6416 66.6499 35.2329 66.6499 34.8161C66.6499 34.2871 66.5376 33.8463 66.3132 33.4936C66.0888 33.1249 65.7923 32.8044 65.4236 32.5318C65.0709 32.2593 64.6622 32.0269 64.1973 31.8346C63.7324 31.6422 63.2596 31.4498 62.7787 31.2575C62.2337 31.0491 61.6967 30.8327 61.1677 30.6083C60.6387 30.3839 60.1658 30.1114 59.7491 29.7908C59.3323 29.4541 58.9957 29.0614 58.7392 28.6126C58.4827 28.1477 58.3545 27.5787 58.3545 26.9054C58.3545 26.2001 58.4907 25.591 58.7632 25.078C59.0358 24.5491 59.3964 24.1163 59.8453 23.7796C60.3101 23.443 60.8311 23.1946 61.4081 23.0343C62.0012 22.8579 62.6024 22.7698 63.2115 22.7698C63.6283 22.7698 64.021 22.8018 64.3897 22.8659C64.7583 22.914 65.111 22.9782 65.4476 23.0583C65.7201 23.1224 65.9846 23.1785 66.2411 23.2266C66.4976 23.2587 66.746 23.2747 66.9865 23.2747V25.7513H66.746C66.714 24.9177 66.3854 24.3567 65.7602 24.0682C65.135 23.7636 64.2694 23.6113 63.1634 23.6113C62.5222 23.6113 61.9932 23.7235 61.5765 23.948C61.1757 24.1563 60.8551 24.4208 60.6147 24.7414C60.3742 25.046 60.2059 25.3826 60.1097 25.7513C60.0296 26.1039 59.9895 26.4165 59.9895 26.689C59.9895 27.1379 60.0857 27.5226 60.2781 27.8432C60.4864 28.1638 60.7589 28.4443 61.0956 28.6847C61.4322 28.9252 61.8169 29.1416 62.2497 29.3339C62.6985 29.5263 63.1634 29.7106 63.6443 29.887C64.1893 30.0953 64.7423 30.3198 65.3034 30.5602C65.8644 30.8006 66.3613 31.0972 66.7941 31.4498C67.243 31.8025 67.6036 32.2353 67.8761 32.7482C68.1647 33.2612 68.3089 33.8864 68.3089 34.6237Z" fill="#474442"/>
<path d="M78.0098 38.6392H78.13C78.5147 38.6392 78.7071 38.4628 78.7071 38.1102C78.7071 37.9819 78.683 37.8457 78.6349 37.7014L76.4709 31.8586H72.2631L70.1712 37.6052C70.1232 37.7335 70.0991 37.8537 70.0991 37.9659C70.0991 38.1743 70.1552 38.3426 70.2674 38.4708C70.3796 38.5831 70.4999 38.6392 70.6281 38.6392H70.7483V38.8796H68.0794V38.6392H68.1996C68.408 38.6392 68.6084 38.5189 68.8007 38.2785C69.0091 38.022 69.1774 37.7255 69.3056 37.3888L74.8118 22.7217L80.1978 37.2446C80.31 37.5652 80.4623 37.8777 80.6547 38.1823C80.8631 38.4869 81.1275 38.6392 81.4481 38.6392H81.5684V38.8796H78.0098V38.6392ZM72.5036 31.0411H76.2064L74.355 26.0158L72.5036 31.0411Z" fill="#474442"/>
<path d="M82.6947 38.6392H82.8149C82.9432 38.6392 83.0554 38.5991 83.1515 38.5189C83.2477 38.4228 83.3279 38.3106 83.392 38.1823C83.4721 38.0541 83.5282 37.9178 83.5603 37.7736C83.6084 37.6293 83.6324 37.493 83.6324 37.3648V24.501C83.6324 24.3888 83.6084 24.2605 83.5603 24.1163C83.5282 23.972 83.4721 23.8357 83.392 23.7075C83.3279 23.5793 83.2477 23.4751 83.1515 23.3949C83.0554 23.2987 82.9432 23.2507 82.8149 23.2507H82.6947V23.0102H86.1571V23.2507H86.0369C85.9086 23.2507 85.7964 23.2987 85.7003 23.3949C85.6041 23.4751 85.5239 23.5793 85.4598 23.7075C85.3957 23.8357 85.3396 23.972 85.2915 24.1163C85.2594 24.2605 85.2434 24.3888 85.2434 24.501V37.99H90.5092C90.8137 37.99 91.0782 37.9178 91.3026 37.7736C91.5271 37.6293 91.7114 37.453 91.8557 37.2446C92.016 37.0202 92.1282 36.7877 92.1923 36.5473C92.2724 36.2908 92.3125 36.0584 92.3125 35.85H92.553V38.8796H82.6947V38.6392Z" fill="#474442"/>
<path d="M93.5591 38.6392H93.6793C93.8075 38.6392 93.9197 38.5991 94.0159 38.5189C94.1121 38.4228 94.1922 38.3106 94.2564 38.1823C94.3365 38.0541 94.3926 37.9178 94.4247 37.7736C94.4728 37.6293 94.4968 37.493 94.4968 37.3648V24.501C94.4968 24.3888 94.4728 24.2605 94.4247 24.1163C94.3926 23.972 94.3365 23.8357 94.2564 23.7075C94.1922 23.5793 94.1121 23.4751 94.0159 23.3949C93.9197 23.2987 93.8075 23.2507 93.6793 23.2507H93.5591V23.0102H102.816V25.2464H102.576C102.544 24.8777 102.399 24.5571 102.143 24.2846C101.886 23.996 101.486 23.8518 100.941 23.8518H96.1078V29.935H100.099C100.468 29.935 100.772 29.8228 101.013 29.5984C101.269 29.374 101.398 29.1095 101.398 28.8049H101.638V31.8105H101.398C101.398 31.522 101.277 31.2735 101.037 31.0651C100.796 30.8567 100.484 30.7526 100.099 30.7526H96.1078V38.038H101.374C101.678 38.038 101.943 37.9659 102.167 37.8216C102.391 37.6774 102.576 37.5091 102.72 37.3167C102.88 37.1083 102.993 36.8919 103.057 36.6675C103.137 36.4271 103.177 36.2267 103.177 36.0664H103.417V38.8796H93.5591V38.6392Z" fill="#474442"/>
<path d="M128.787 23.2507C128.467 23.2507 128.194 23.3869 127.97 23.6594C127.745 23.9319 127.593 24.2285 127.513 24.5491L123.137 38.9758L119.386 27.1459L115.635 38.9998L111.235 24.5731C111.154 24.2685 111.01 23.972 110.802 23.6835C110.609 23.3949 110.385 23.2507 110.129 23.2507V23.0102H113.543V23.2507C113.334 23.2507 113.158 23.3388 113.014 23.5151C112.886 23.6754 112.822 23.8838 112.822 24.1403C112.822 24.2205 112.838 24.3246 112.87 24.4529L115.995 34.6478L119.819 22.8659L123.497 34.6237L126.671 24.4529C126.671 24.4208 126.679 24.3567 126.695 24.2605C126.727 24.1483 126.743 24.0602 126.743 23.996C126.743 23.7716 126.679 23.5953 126.551 23.4671C126.423 23.3228 126.294 23.2507 126.166 23.2507V23.0102H128.787V23.2507Z" fill="#474442"/>
<path d="M135.502 38.6392H135.622C136.006 38.6392 136.199 38.4628 136.199 38.1102C136.199 37.9819 136.175 37.8457 136.127 37.7014L133.963 31.8586H129.755L127.663 37.6052C127.615 37.7335 127.591 37.8537 127.591 37.9659C127.591 38.1743 127.647 38.3426 127.759 38.4708C127.871 38.5831 127.992 38.6392 128.12 38.6392H128.24V38.8796H125.571V38.6392H125.691C125.9 38.6392 126.1 38.5189 126.292 38.2785C126.501 38.022 126.669 37.7255 126.797 37.3888L132.304 22.7217L137.69 37.2446C137.802 37.5652 137.954 37.8777 138.146 38.1823C138.355 38.4869 138.619 38.6392 138.94 38.6392H139.06V38.8796H135.502V38.6392ZM129.995 31.0411H133.698L131.847 26.0158L129.995 31.0411Z" fill="#474442"/>
<path d="M143.457 38.6392H143.577V38.8796H140.186V38.6392H140.307C140.419 38.6392 140.523 38.5911 140.619 38.4949C140.715 38.3987 140.796 38.2865 140.86 38.1583C140.94 38.03 140.996 37.8938 141.028 37.7495C141.06 37.5892 141.076 37.4449 141.076 37.3167V24.501C141.076 24.3888 141.06 24.2605 141.028 24.1163C140.996 23.972 140.94 23.8357 140.86 23.7075C140.796 23.5793 140.715 23.4751 140.619 23.3949C140.523 23.2987 140.419 23.2507 140.307 23.2507H140.186V23.0102H144.37C145.973 23.0102 147.207 23.3228 148.073 23.948C148.955 24.5731 149.396 25.4948 149.396 26.7131C149.396 27.3222 149.291 27.8592 149.083 28.3241C148.891 28.7729 148.626 29.1656 148.289 29.5022C147.953 29.8228 147.552 30.0873 147.087 30.2957C146.638 30.4881 146.158 30.6323 145.645 30.7285L147.376 33.3734C147.793 34.0146 148.217 34.6478 148.65 35.2729C149.083 35.8821 149.508 36.5152 149.925 37.1724C150.037 37.3327 150.157 37.5011 150.285 37.6774C150.429 37.8537 150.574 38.014 150.718 38.1583C150.878 38.3025 151.039 38.4228 151.199 38.5189C151.375 38.5991 151.552 38.6392 151.728 38.6392V38.8796H150.694C150.053 38.8796 149.524 38.7273 149.107 38.4228C148.706 38.1022 148.37 37.7335 148.097 37.3167C147.376 36.2587 146.654 35.1848 145.933 34.0947C145.228 33.0047 144.523 31.9307 143.817 30.8728C143.641 30.8567 143.449 30.8407 143.24 30.8247C143.048 30.7926 142.863 30.7606 142.687 30.7285V37.3167C142.687 37.4449 142.703 37.5892 142.735 37.7495C142.767 37.8938 142.815 38.03 142.879 38.1583C142.96 38.2865 143.04 38.3987 143.12 38.4949C143.216 38.5911 143.328 38.6392 143.457 38.6392ZM142.687 23.8277V29.935H142.807C142.936 29.9511 143.136 29.9671 143.408 29.9831C143.697 29.9831 144.05 29.9831 144.466 29.9831C144.803 29.9831 145.156 29.935 145.524 29.8389C145.909 29.7267 146.262 29.5503 146.582 29.3099C146.919 29.0534 147.191 28.7248 147.4 28.3241C147.624 27.9233 147.736 27.4184 147.736 26.8092C147.736 26.2001 147.616 25.7032 147.376 25.3185C147.151 24.9338 146.831 24.6292 146.414 24.4048C146.013 24.1804 145.524 24.0281 144.947 23.948C144.37 23.8678 143.737 23.8277 143.048 23.8277H142.687Z" fill="#474442"/>
<path d="M152.835 38.6392H152.955C153.067 38.6392 153.171 38.5911 153.268 38.4949C153.364 38.3987 153.444 38.2865 153.508 38.1583C153.588 38.03 153.644 37.8938 153.676 37.7495C153.708 37.5892 153.724 37.4449 153.724 37.3167V24.501C153.724 24.3888 153.708 24.2605 153.676 24.1163C153.644 23.972 153.596 23.8357 153.532 23.7075C153.468 23.5793 153.388 23.4751 153.292 23.3949C153.196 23.2987 153.083 23.2507 152.955 23.2507H152.835V23.0102H157.475C158.742 23.0102 159.88 23.2346 160.89 23.6835C161.9 24.1163 162.749 24.7094 163.438 25.4628C164.144 26.2001 164.681 27.0497 165.049 28.0115C165.418 28.9733 165.602 29.9751 165.602 31.017C165.602 31.9949 165.426 32.9566 165.073 33.9024C164.721 34.8321 164.192 35.6657 163.487 36.403C162.781 37.1404 161.9 37.7415 160.842 38.2064C159.784 38.6552 158.557 38.8796 157.163 38.8796H152.835V38.6392ZM163.967 31.3777C163.967 30.3518 163.783 29.382 163.414 28.4683C163.046 27.5546 162.525 26.7612 161.852 26.0879C161.194 25.3986 160.409 24.8536 159.495 24.4529C158.598 24.0521 157.62 23.8518 156.562 23.8518H155.335V38.038H156.61C157.475 38.038 158.341 37.9098 159.207 37.6533C160.088 37.3808 160.882 36.9721 161.587 36.4271C162.292 35.866 162.861 35.1687 163.294 34.3352C163.743 33.5016 163.967 32.5158 163.967 31.3777Z" fill="#474442"/>
</g>
<defs>
<clipPath id="clip0_7865_485">
<rect width="180" height="64" fill="white"/>
</clipPath>
</defs>
</svg>
